<?xml version="1.0" encoding="UTF-8" standalone="no"?>
<!-- Created with Inkscape (http://www.inkscape.org/) -->

<svg
   width="500"
   height="500"
   viewBox="0.4 0 98.039216 98.039216"
   version="1.1"
   id="svg1"
   xml:space="preserve"
   sodipodi:docname="historybt.svg"
   inkscape:version="1.1.2 (0a00cf5339, 2022-02-04, custom)"
   xmlns:inkscape="http://www.inkscape.org/namespaces/inkscape"
   xmlns:sodipodi="http://sodipodi.sourceforge.net/DTD/sodipodi-0.dtd"
   xmlns="http://www.w3.org/2000/svg"
   xmlns:svg="http://www.w3.org/2000/svg"><sodipodi:namedview
     id="namedview1"
     pagecolor="#0000ff"
     bordercolor="#000000"
     borderopacity="0.25"
     inkscape:showpageshadow="2"
     inkscape:pageopacity="0"
     inkscape:pagecheckerboard="0"
     inkscape:deskcolor="#d1d1d1"
     inkscape:document-units="mm"
     inkscape:zoom="0.44631734"
     inkscape:cx="431.30746"
     inkscape:cy="673.28776"
     inkscape:window-width="1920"
     inkscape:window-height="1001"
     inkscape:window-x="-9"
     inkscape:window-y="-9"
     inkscape:window-maximized="1"
     inkscape:current-layer="layer1"
     inkscape:pageshadow="0"
     showgrid="false"
     viewbox-x="0.3" /><defs
     id="defs1" /><g
     inkscape:label="Camada 1"
     inkscape:groupmode="layer"
     id="layer1"><path
       style="fill:#ffffff;stroke-width:16.6044"
       d="m 44.76929,94.071223 c -6.073279,-1.10198 -12.171844,-3.5513 -17.50692,-7.03118 -5.423004,-3.537232 -15.149938,-14.406652 -15.149938,-16.929382 0,-1.21673 1.652139,-2.96356 3.325139,-3.5157 2.421533,-0.79918 3.540415,-0.2644 5.33034,2.54769 4.663163,7.32612 12.35991,12.96466 21.527659,15.77087 3.458818,1.05873 4.5795,1.186002 10.6741,1.212152 5.967904,0.0256 7.21487,-0.098 10.088996,-1.000562 16.244852,-5.10105 26.545783,-19.31918 26.467552,-36.53251 C 89.498038,42.390361 88.495367,38.152151 85.73262,32.557229 82.170096,25.34265 76.826939,20.015586 69.444364,16.318014 64.530195,13.856747 59.759884,12.601529 54.067984,12.272005 46.194627,11.81619 40.617248,13.346526 32.64237,18.150824 25.842764,22.247103 20.878813,27.937119 18.214308,34.68924 c -1.973474,5.000981 -2.112675,4.828651 3.599095,4.455521 l 4.868394,-0.31803 -7.614176,7.42885 c -4.187797,4.08587 -8.811651,8.55042 -10.2752295,9.92123 l -2.661051,2.49238 -2.199649,-13.71497 c -1.209808,-7.54323 -2.1487141,-13.786196 -2.086459,-13.873255 0.06226,-0.08706 1.608071,1.063223 3.435147,2.55618 2.853731,2.331865 3.360975,2.601865 3.598787,1.915585 2.3366725,-6.743177 5.8207465,-12.371992 10.9536915,-17.69661 9.037684,-9.3751635 19.882,-14.0746885 32.477824,-14.0746885 11.877688,0 22.474055,4.273429 31.501936,12.7044755 7.320533,6.836572 11.437683,14.380028 13.327391,24.418503 1.104314,5.86632 0.706927,15.28643 -0.871041,20.64828 -4.844137,16.46009 -18.216782,28.910502 -34.732457,32.337152 -4.635759,0.96182 -12.025449,1.04176 -16.767221,0.18138 z"
       id="path120" /><path
       id="path159"
       style="fill:#ffffff;stroke-width:16.6044"
       d="m 47.584957,27.017207 c -0.7776,0.01293 -1.46857,0.391469 -2.29014,1.162302 l -1.28791,1.208255 -0.20144,14.826902 -0.20144,14.82728 11.47672,-0.002 c 6.31226,-10e-4 12.18886,-0.2003 13.05874,-0.44194 3.29042,-0.91401 4.31297,-4.18466 2.02398,-6.47365 -1.1638,-1.1638 -1.31288,-1.1895 -9.20382,-1.57169 -4.41149,-0.21367 -8.09888,-0.46185 -8.19393,-0.55186 -0.0951,-0.09 -0.26834,-4.46819 -0.38526,-9.72924 -0.23179,-10.428919 -0.45426,-11.460698 -2.72251,-12.633655 -0.81121,-0.419494 -1.46819,-0.630463 -2.07299,-0.620404 z" /></g></svg>
