<?xml version="1.0" encoding="UTF-8" standalone="no"?>
<!-- Created with Inkscape (http://www.inkscape.org/) -->

<svg
   width="700"
   height="600"
   viewBox="0 0 185.208 158.74967"
   version="1.1"
   id="svg1"
   xml:space="preserve"
   inkscape:version="1.3.2 (091e20e, 2023-11-25, custom)"
   sodipodi:docname="indice.svg"
   xmlns:inkscape="http://www.inkscape.org/namespaces/inkscape"
   xmlns:sodipodi="http://sodipodi.sourceforge.net/DTD/sodipodi-0.dtd"
   xmlns="http://www.w3.org/2000/svg"
   xmlns:svg="http://www.w3.org/2000/svg"><sodipodi:namedview
     id="namedview1"
     pagecolor="#ffffff"
     bordercolor="#000000"
     borderopacity="0.25"
     inkscape:showpageshadow="2"
     inkscape:pageopacity="0.0"
     inkscape:pagecheckerboard="0"
     inkscape:deskcolor="#d1d1d1"
     inkscape:document-units="mm"
     inkscape:zoom="0.35355339"
     inkscape:cx="636.3961"
     inkscape:cy="445.47727"
     inkscape:window-width="1366"
     inkscape:window-height="697"
     inkscape:window-x="-8"
     inkscape:window-y="-8"
     inkscape:window-maximized="1"
     inkscape:current-layer="layer1" /><defs
     id="defs1" /><g
     inkscape:label="Camada 1"
     inkscape:groupmode="layer"
     id="layer1"><path
       style="fill:#ffffff;fill-opacity:1"
       d="m 91.584311,90.804021 c -0.749694,-0.37359 -1.695806,-1.06501 -2.102471,-1.53649 -0.406664,-0.47147 -6.928093,-9.67827 -14.492063,-20.45955 l -13.752674,-19.60233 -3.709826,-0.10154 c -3.299816,-0.0903 -3.852497,-0.17357 -5.000707,-0.75325 -2.290281,-1.15626 -3.8685,-3.70624 -3.8685,-6.25048 0,-2.38775 1.853281,-5.0842 4.233337,-6.15932 1.07994,-0.48784 1.733521,-0.53837 7.030474,-0.54364 6.907869,-0.007 7.745449,0.17626 9.628969,2.10541 0.659964,0.67596 5.78384,7.79354 11.386392,15.81685 5.602552,8.02331 10.249664,14.5941 10.326917,14.60176 0.07725,0.008 3.338954,-13.8271 7.248223,-30.7439 3.909288,-16.91679 7.264538,-31.2061905 7.456108,-31.7542125 0.5076,-1.452138 1.60535,-2.766816 2.9899,-3.580769 l 1.21538,-0.714493 h 34.52839 c 32.69277,0 34.57888,0.02526 35.48265,0.475286 5.1202,2.549553 5.15289,9.7597075 0.0556,12.2626395 l -1.53926,0.75582 -30.44583,0.0726 -30.44606,0.0725 -8.2692,35.77849 c -4.54806,19.67817 -8.50487,36.31427 -8.7929,36.96912 -0.69818,1.5873 -1.673282,2.58169 -3.273451,3.33817 -1.858812,0.87875 -4.064872,0.86052 -5.889388,-0.0487 z"
       id="path1"
       sodipodi:nodetypes="cssccssccsscssscssscccssscc" /><text
       xml:space="preserve"
       style="font-size:33.8666px;fill:#ffffff;stroke:#ffffff;stroke-width:0.165;stroke-linecap:square;stroke-linejoin:bevel;fill-opacity:1"
       x="2.6390088"
       y="125.86783"
       id="text1"><tspan
         id="tspan1"
         style="font-style:normal;font-variant:normal;font-weight:normal;font-stretch:normal;font-size:33.8666px;font-family:'Times New Roman';-inkscape-font-specification:'Times New Roman, ';fill:#ffffff;stroke-width:0.165;fill-opacity:1"
         x="2.6390088"
         y="125.86783"
         sodipodi:role="line">Índice</tspan></text><circle
       id="path2"
       style="fill:#ffffff;stroke:#ffffff;stroke-width:0.264583;fill-opacity:1"
       cx="100.18563"
       cy="79.363022"
       r="0.0061553288" /><path
       style="fill:#ffffff;stroke:#ffffff;stroke-width:0.235041;stroke-linecap:square;stroke-linejoin:bevel;fill-opacity:1"
       d="m 16.397577,83.004935 h 14.857186 v 0.05278 l -7.375822,7.375814 z"
       id="path4" /><rect
       style="fill:#ffffff;stroke:none;stroke-width:0.565879;stroke-linecap:square;stroke-linejoin:bevel;fill-opacity:1"
       id="rect4"
       width="3.7835803"
       height="72.667274"
       x="21.953043"
       y="14.322446"
       ry="2.3308792" /><rect
       style="fill:#ffffff;stroke:none;stroke-width:0.375866;stroke-linecap:square;stroke-linejoin:bevel;fill-opacity:1"
       id="rect4-7"
       width="3.7835803"
       height="32.05957"
       x="14.174433"
       y="-55.200531"
       ry="1.0283444"
       transform="rotate(90)" /><path
       style="fill:#ffffff;stroke-width:0.458241;fill-opacity:1"
       d="m 59.76579,27.877492 c -0.72753,-0.145478 -1.574418,-0.742327 -1.911211,-1.346929 -0.419991,-0.753962 -0.420771,-1.783817 -0.0018,-2.57359 0.166712,-0.314367 1.557972,-2.053194 3.091695,-3.86405 1.533722,-1.810862 2.828495,-3.359642 2.87727,-3.441736 0.05624,-0.09465 -0.887456,-1.274688 -2.579432,-3.225419 -2.859143,-3.296386 -3.389533,-4.0868654 -3.389533,-5.0516546 0,-1.706323 1.125947,-2.859284 2.788587,-2.855499 1.613461,0.0037 2.043125,0.361089 4.745389,3.94745 1.19791,1.5898296 2.223833,2.8622816 2.279826,2.8276796 0.05599,-0.0346 1.041466,-1.291794 2.189946,-2.793756 2.280412,-2.9822766 2.862928,-3.5816136 3.775803,-3.8848226 1.125682,-0.373888 2.564475,0.110867 3.215186,1.083258 0.469413,0.7014749 0.543684,1.8920346 0.166621,2.6709476 -0.145349,0.3002439 -1.514939,2.007608 -3.043543,3.794142 -1.5286,1.786533 -2.777379,3.275518 -2.77506,3.30886 0.0023,0.03336 1.303828,1.551708 2.892246,3.374141 1.58838,1.822435 3.015539,3.568332 3.171419,3.879771 0.787509,1.57337 0.143214,3.422701 -1.402428,4.025415 -0.585925,0.228479 -1.762467,0.180272 -2.391526,-0.09799 -0.767686,-0.339584 -1.237245,-0.858944 -3.626439,-4.011068 -1.144296,-1.509696 -2.14409,-2.814698 -2.221767,-2.899999 -0.110976,-0.121874 -0.612516,0.464917 -2.341293,2.739267 -1.210035,1.591896 -2.431279,3.125573 -2.713871,3.408165 -0.856535,0.85653 -1.794302,1.187714 -2.795961,0.987417 z"
       id="path1-6"
       sodipodi:nodetypes="cscsssssssssssscsssssssscc" /><path
       style="fill:#ffffff;stroke-width:1.19651;fill-opacity:1"
       d="m 145.72563,89.386876 c -6.9276,-0.03299 -5.80088,-6.201287 -5.94395,-13.324145 -0.15783,-7.857655 -1.96296,-12.829729 -2.12816,-13.016472 -3.17894,-3.593519 -2.22244,-2.982366 -7.21686,-8.111243 -6.44487,-6.618374 -9.87953,-10.10997 -9.87953,-12.629137 0,-4.455389 2.93997,-7.465891 7.2813,-7.456008 4.21291,0.0097 5.3348,0.942841 12.39068,10.307208 3.12787,4.151211 5.80669,7.473717 5.95288,7.383368 0.14623,-0.09034 2.71939,-3.37301 5.71819,-7.294791 5.95439,-7.787038 7.47539,-9.35197 9.85901,-10.143681 2.93928,-0.976261 6.69611,0.289486 8.39521,2.828501 1.22568,1.831625 1.4196,4.940301 0.43506,6.974124 -0.37953,0.78397 -4.00613,5.199368 -7.94703,9.906906 -3.23392,3.863031 -1.83055,1.972911 -7.15657,8.860319 -1.64508,2.127343 -2.28837,3.693292 -2.75257,12.790448 -0.34245,6.711146 1.57295,12.965465 -7.00766,12.924603 z"
       id="path1-6-9"
       sodipodi:nodetypes="ssssssssssssssss" /><circle
       id="path2-2"
       style="fill:#ffffff;stroke:#ffffff;stroke-width:0.264583;fill-opacity:1"
       cx="136.72327"
       cy="83.791191"
       r="0.0061553288" /><text
       xml:space="preserve"
       style="font-style:normal;font-variant:normal;font-weight:normal;font-stretch:normal;font-size:33.8666px;font-family:'Times New Roman';-inkscape-font-specification:'Times New Roman, ';fill:#000000;stroke:none;stroke-width:0.165;stroke-linecap:square;stroke-linejoin:bevel"
       x="136.34705"
       y="56.910072"
       id="text4"><tspan
         sodipodi:role="line"
         id="tspan4"
         style="font-style:normal;font-variant:normal;font-weight:normal;font-stretch:normal;font-family:sans-serif;-inkscape-font-specification:sans-serif;stroke-width:0.165"
         x="136.34705"
         y="56.910072" /></text></g></svg>
