<?xml version="1.0" encoding="UTF-8" standalone="no"?>
<svg
   viewBox="0 0 24 24"
   width="24px"
   height="24px"
   version="1.1"
   id="svg960"
   sodipodi:docname="infoicon.svg"
   inkscape:version="1.1.2 (0a00cf5339, 2022-02-04, custom)"
   xmlns:inkscape="http://www.inkscape.org/namespaces/inkscape"
   xmlns:sodipodi="http://sodipodi.sourceforge.net/DTD/sodipodi-0.dtd"
   xmlns="http://www.w3.org/2000/svg"
   xmlns:svg="http://www.w3.org/2000/svg">
  <defs
     id="defs964" />
  <sodipodi:namedview
     id="namedview962"
     pagecolor="#505050"
     bordercolor="#eeeeee"
     borderopacity="1"
     inkscape:pageshadow="0"
     inkscape:pageopacity="0"
     inkscape:pagecheckerboard="0"
     showgrid="false"
     inkscape:zoom="33.666667"
     inkscape:cx="11.985149"
     inkscape:cy="11.940594"
     inkscape:window-width="1920"
     inkscape:window-height="1001"
     inkscape:window-x="-9"
     inkscape:window-y="-9"
     inkscape:window-maximized="1"
     inkscape:current-layer="svg960" />
  <path
     d="M 12 2 C 6.4889971 2 2 6.4889971 2 12 C 2 17.511003 6.4889971 22 12 22 C 17.511003 22 22 17.511003 22 12 C 22 6.4889971 17.511003 2 12 2 z M 12 4 C 16.430123 4 20 7.5698774 20 12 C 20 16.430123 16.430123 20 12 20 C 7.5698774 20 4 16.430123 4 12 C 4 7.5698774 7.5698774 4 12 4 z M 11 7 L 11 9 L 13 9 L 13 7 L 11 7 z M 11 11 L 11 17 L 13 17 L 13 11 L 11 11 z"
     id="path958" />
  <path
     style="stroke-width:1.12263;fill:#ffffff"
     d="M 11.331683,21.961875 C 9.3308572,21.829084 7.3840951,21.072423 5.7920792,19.808758 5.3894988,19.489209 4.6662979,18.782391 4.3414789,18.391019 3.0501675,16.835124 2.2957757,15.049829 2.0613652,12.99505 c -0.045872,-0.4021 -0.045872,-1.588 0,-1.9901 C 2.3336375,8.6182842 3.3148214,6.574339 4.9802317,4.9245373 6.1004664,3.8148017 7.3170695,3.0568092 8.7903746,2.5506657 9.8508365,2.1863516 10.832693,2.0257856 12,2.0257856 c 1.166348,0 2.119289,0.153832 3.168281,0.5114512 1.491185,0.5083708 2.68494,1.2441851 3.807072,2.3466281 1.164589,1.1441554 1.952303,2.3879854 2.473981,3.9065097 0.361598,1.0525541 0.526013,2.0557824 0.526013,3.2096254 0,0.899901 -0.08319,1.588335 -0.292521,2.420792 -0.351772,1.398897 -0.975636,2.654388 -1.894106,3.811774 -0.296443,0.373555 -0.981295,1.075735 -1.358027,1.392387 -1.663839,1.398497 -3.658693,2.1981 -5.836127,2.339309 -0.526406,0.03414 -0.717994,0.03378 -1.262883,-0.0024 z m 1.841584,-2.029434 c 0.836579,-0.131237 1.617086,-0.37679 2.361386,-0.74291 0.87278,-0.429318 1.518058,-0.8972 2.199413,-1.594762 0.64681,-0.662194 1.046715,-1.228719 1.45422,-2.060116 0.376662,-0.76847 0.613586,-1.523012 0.74613,-2.376237 0.07921,-0.509889 0.07921,-1.806943 0,-2.316832 C 19.801983,9.9890765 19.561672,9.2226128 19.189388,8.4653465 18.393197,6.8458025 17.146795,5.5991685 15.534653,4.809932 14.386433,4.2478114 13.290047,3.9950495 12,3.9950495 c -1.272468,0 -2.4134249,0.2631349 -3.5346535,0.8151849 C 6.8441397,5.6084546 5.5990562,6.853435 4.809932,8.4653465 4.2478114,9.6135671 3.9950495,10.709953 3.9950495,12 c 0,1.296164 0.2654214,2.434275 0.8341999,3.576998 0.3979497,0.799513 0.8457086,1.424955 1.4760936,2.061846 0.6568651,0.663645 1.3147681,1.135636 2.1600035,1.549622 0.7836259,0.383811 1.5821895,0.632088 2.3762375,0.738784 0.19604,0.02634 0.396535,0.05338 0.445545,0.06008 0.228228,0.0312 1.589943,-0.0084 1.886138,-0.05489 z"
     id="path1057" />
  <path
     style="fill:#ffffff;stroke-width:1.12263"
     d="M 11.00495,13.990099 V 11.00495 H 12 12.99505 v 2.985149 2.985149 H 12 11.00495 Z"
     id="path1133" />
  <path
     style="fill:#ffffff;stroke-width:1.12263"
     d="M 11.00495,8.0049505 V 7.0247525 H 12 12.99505 v 0.980198 0.980198 H 12 11.00495 Z"
     id="path1172" />
</svg>
