<?xml version="1.0" encoding="UTF-8" standalone="no"?>
<svg
   viewBox="0 0 24 24"
   width="24px"
   height="24px"
   version="1.1"
   id="svg960"
   sodipodi:docname="infoicon copy.svg"
   inkscape:version="1.3.2 (091e20e, 2023-11-25, custom)"
   xml:space="preserve"
   xmlns:inkscape="http://www.inkscape.org/namespaces/inkscape"
   xmlns:sodipodi="http://sodipodi.sourceforge.net/DTD/sodipodi-0.dtd"
   xmlns="http://www.w3.org/2000/svg"
   xmlns:svg="http://www.w3.org/2000/svg"><defs
     id="defs964"><filter
       inkscape:label="Pixellize"
       inkscape:menu="Pixel Tools"
       inkscape:menu-tooltip="Reduce or remove antialiasing around shapes"
       style="color-interpolation-filters:sRGB;"
       id="filter1"
       x="0"
       y="0"
       width="1"
       height="1"><feColorMatrix
         values="1 0 0 0 0 0 1 0 0 0 0 0 1 0 0 0 0 0 1000 -500 "
         id="feColorMatrix1"
         result="fbSourceGraphic" /><feColorMatrix
         result="fbSourceGraphicAlpha"
         in="fbSourceGraphic"
         values="0 0 0 -1 0 0 0 0 -1 0 0 0 0 -1 0 0 0 0 1 0"
         id="feColorMatrix2" /><feColorMatrix
         id="feColorMatrix3"
         values="1 0 0 0 0 0 1 0 0 0 0 0 1 0 0 0 0 0 1000 -500 "
         in="fbSourceGraphic"
         result="fbSourceGraphic" /><feColorMatrix
         result="fbSourceGraphicAlpha"
         in="fbSourceGraphic"
         values="0 0 0 -1 0 0 0 0 -1 0 0 0 0 -1 0 0 0 0 1 0"
         id="feColorMatrix4" /><feColorMatrix
         id="feColorMatrix5"
         values="1 0 0 0 0 0 1 0 0 0 0 0 1 0 0 0 0 0 1000 -500 "
         in="fbSourceGraphic" /></filter></defs><sodipodi:namedview
     id="namedview962"
     pagecolor="#505050"
     bordercolor="#eeeeee"
     borderopacity="1"
     inkscape:pageshadow="0"
     inkscape:pageopacity="0"
     inkscape:pagecheckerboard="0"
     showgrid="false"
     inkscape:zoom="16.833334"
     inkscape:cx="3.8316831"
     inkscape:cy="14.108911"
     inkscape:window-width="1366"
     inkscape:window-height="697"
     inkscape:window-x="-8"
     inkscape:window-y="-8"
     inkscape:window-maximized="1"
     inkscape:current-layer="svg960"
     inkscape:showpageshadow="2"
     inkscape:deskcolor="#d1d1d1" /><path
     style="fill:#ffffff;fill-opacity:1"
     d="m 9.7477561,21.011975 v -0.60685 H 8.5573974 7.3670388 V 19.822404 19.239683 L 6.16501,19.227225 4.9629813,19.214767 4.950523,18.012738 4.9380647,16.810709 H 4.3553437 3.7726226 V 15.62035 14.429992 H 3.1657732 2.5589237 V 12.049275 9.6685574 H 3.1657732 3.7726226 V 8.4781988 7.2878402 h 0.5827211 0.582721 L 4.950523,6.0858114 4.9629813,4.8837826 6.16501,4.8713243 7.3670388,4.858866 V 4.276145 3.693424 H 8.5573974 9.7477561 V 3.0865745 2.479725 h 2.3807169 2.380718 V 3.0865745 3.693424 h 1.190358 1.190359 v 0.582721 0.582721 l 1.202029,0.012458 1.202028,0.012458 0.01246,1.2020288 0.01246,1.2020288 h 0.582721 0.582721 v 1.1903586 1.1903586 h 0.606849 0.60685 v 2.3807176 2.380717 h -0.60685 -0.606849 v 1.190358 1.190359 h -0.582721 -0.582721 l -0.01246,1.202029 -0.01246,1.202029 -1.202028,0.01246 -1.202029,0.01246 v 0.582721 0.582721 h -1.190359 -1.190358 v 0.60685 0.606849 H 12.128473 9.7477561 Z m 4.7614349,-2.380717 v -0.60685 h 1.188963 1.188964 l 0.01306,-0.595179 0.01307,-0.59518 0.595179,-0.01306 0.59518,-0.01307 v -1.188964 -1.188964 h 0.606849 0.60685 V 12.049275 9.6685574 h -0.60685 -0.606849 V 8.4795935 7.2906295 l -0.59518,-0.013065 -0.595179,-0.013065 -0.01307,-0.5951793 -0.01306,-0.5951793 H 15.698154 14.509191 V 5.4672917 4.8604422 H 12.128473 9.7477561 V 5.4672917 6.0741412 H 8.5587921 7.3698282 l -0.013065,0.5951793 -0.013065,0.5951793 -0.5951793,0.013065 -0.5951793,0.013065 v 1.188964 1.1889639 H 5.5464904 4.9396409 v 2.3807176 2.380717 h 0.6068495 0.6068495 v 1.188964 1.188964 l 0.5951793,0.01307 0.5951793,0.01306 0.013065,0.59518 0.013065,0.595179 h 1.1889639 1.188964 v 0.60685 0.606849 h 2.3807169 2.380718 z m -3.583092,-4.796445 0.01202,-2.975897 h 1.190358 1.190359 l 0.01202,2.975897 0.01201,2.975896 h -1.21439 -1.21439 z m 0.02058,-4.1965925 c -0.01755,-0.017547 -0.0319,-0.5535612 -0.0319,-1.1911422 V 7.2878402 h 1.214501 1.2145 l -0.01247,1.1786884 -0.01247,1.1786884 -1.170125,0.012454 c -0.643568,0.00685 -1.184481,-0.0019 -1.202029,-0.01945 z"
     id="path5" /></svg>
