<?xml version="1.0" encoding="UTF-8" standalone="no"?>
<!-- Created with Inkscape (http://www.inkscape.org/) -->

<svg
   width="500"
   height="500"
   viewBox="0 0 98.039216 98.039216"
   version="1.1"
   id="svg1"
   xml:space="preserve"
   sodipodi:docname="inomeado.svg"
   inkscape:version="1.3.2 (091e20e, 2023-11-25, custom)"
   xmlns:inkscape="http://www.inkscape.org/namespaces/inkscape"
   xmlns:sodipodi="http://sodipodi.sourceforge.net/DTD/sodipodi-0.dtd"
   xmlns="http://www.w3.org/2000/svg"
   xmlns:svg="http://www.w3.org/2000/svg"><sodipodi:namedview
     id="namedview1"
     pagecolor="#ffffff"
     bordercolor="#000000"
     borderopacity="0.25"
     inkscape:showpageshadow="2"
     inkscape:pageopacity="0.0"
     inkscape:pagecheckerboard="0"
     inkscape:deskcolor="#d1d1d1"
     inkscape:document-units="mm"
     inkscape:zoom="0.44631734"
     inkscape:cx="1093.3924"
     inkscape:cy="509.727"
     inkscape:window-width="1366"
     inkscape:window-height="697"
     inkscape:window-x="-8"
     inkscape:window-y="-8"
     inkscape:window-maximized="1"
     inkscape:current-layer="layer1" /><defs
     id="defs1" /><g
     inkscape:label="Camada 1"
     inkscape:groupmode="layer"
     id="layer1"><g
       id="g1"
       transform="matrix(2.804486,0,0,2.804486,-326.44343,-168.35898)"><path
         style="fill:#000000"
         d="m 138.96816,93.412092 c -4.64371,1.204978 -9.9806,0.156854 -13.74994,-2.700376 -2.00082,-1.51666 -3.95955,-3.70347 -4.80146,-5.360561 l -0.0133,-0.497532 0.24066,-0.493718 0.30489,-0.34457 0.43663,-0.261082 0.49501,-0.196588 0.49364,-0.05119 0.48859,0.153714 0.45966,0.379599 c 2.50821,4.829497 8.80958,7.661451 14.39169,6.467924 4.34697,-0.929438 7.87324,-4.011639 9.45873,-8.267479 3.50695,-9.413585 -3.83115,-18.717615 -13.99261,-17.741327 -1.39435,0.133968 -2.13419,0.384778 -4.17453,1.415205 -3.72401,1.880459 -5.68842,4.201213 -6.81101,8.045372 l 3.67846,-0.134269 -7.56885,7.331377 -1.67529,-10.409628 2.57552,2.092191 c 1.57343,-5.232878 6.10113,-9.649052 11.29771,-11.019434 4.88301,-1.287687 10.14925,-0.301697 14.00691,2.622479 4.47062,3.388815 6.60515,7.635844 6.64674,13.224955 0.0542,7.278285 -5.07016,13.898032 -12.18828,15.745083 z"
         id="path1"
         sodipodi:nodetypes="cscccccccccscsccccccssccc" /><path
         d="m 132.99349,80.703719 c 0.0355,-4.610079 0.0231,-4.628824 0.0197,-7.12701 v -2.92187 c 0,-0.973957 0.84592,-1.545752 1.58079,-1.53692 0.76634,0.0092 1.59476,0.800115 1.60948,1.641884 0.0147,0.841769 0.0442,2.525306 0.0442,2.525306 l 0.035,2.002626 0.0379,2.164563 c 0.59768,0.01308 1.19535,0.02621 1.79303,0.03932 0,0 1.05345,0.03467 1.58036,0.03467 1.2339,0 3.37344,-0.176926 3.37344,1.6536 0,1.648581 -2.30384,1.57918 -3.50573,1.57918 -2.18947,0 -6.56817,-0.05535 -6.56817,-0.05535 z"
         style="fill:#000000"
         id="path1-9"
         sodipodi:nodetypes="ccssscccssssc" /></g></g></svg>
