<?xml version="1.0" encoding="UTF-8" standalone="no"?>
<!-- Created with Inkscape (http://www.inkscape.org/) -->

<svg
   width="450"
   height="450"
   viewBox="0 0 119.06249 119.06249"
   version="1.1"
   id="svg1"
   inkscape:version="1.3.2 (091e20e, 2023-11-25, custom)"
   sodipodi:docname="logo.svg"
   xmlns:inkscape="http://www.inkscape.org/namespaces/inkscape"
   xmlns:sodipodi="http://sodipodi.sourceforge.net/DTD/sodipodi-0.dtd"
   xmlns="http://www.w3.org/2000/svg"
   xmlns:svg="http://www.w3.org/2000/svg">
  <sodipodi:namedview
     id="namedview1"
     pagecolor="#000000"
     bordercolor="#000000"
     borderopacity="0.25"
     inkscape:showpageshadow="2"
     inkscape:pageopacity="0.0"
     inkscape:pagecheckerboard="0"
     inkscape:deskcolor="#d1d1d1"
     inkscape:document-units="mm"
     showguides="false"
     inkscape:zoom="0.22315867"
     inkscape:cx="788.6765"
     inkscape:cy="764.03036"
     inkscape:window-width="1366"
     inkscape:window-height="697"
     inkscape:window-x="-8"
     inkscape:window-y="-8"
     inkscape:window-maximized="1"
     inkscape:current-layer="layer2" />
  <defs
     id="defs1" />
  <g
     inkscape:label="Camada 1"
     inkscape:groupmode="layer"
     id="layer1" />
  <g
     inkscape:groupmode="layer"
     id="layer2"
     inkscape:label="Camada 2">
    <path
       style="opacity:1;fill:none;stroke:#ffffff;stroke-width:1.865;stroke-linecap:round;stroke-linejoin:round;stroke-dasharray:none;stroke-dashoffset:0;stroke-opacity:1"
       d="m 22.187969,58.057814 v 44.119016 c 0,0 0.209592,2.88188 2.881884,2.88188 2.672291,0 6.340141,0 6.340141,0 0,0 2.17452,0.31439 2.17452,-2.17451 0,-2.4889 0,-26.696716 0,-26.696716 0,0 -0.31439,-1.37544 1.37544,-1.37544 1.68983,0 18.48335,0 18.48335,0 0,0 1.01521,-0.1572 1.01521,1.01521 0,1.1724 0,28.209706 0,28.209706 0,0 -0.15719,0.90713 0.907145,0.90713 1.06433,0 36.82141,0 36.82141,0 0,0 3.71518,0.14821 3.71518,-3.71518 0,-3.863386 0,-43.211446 0,-43.211446 H 106.85922 L 58.767149,17.261484 10.477042,58.110214 Z"
       id="path2" />
  </g>
</svg>
