<?xml version="1.0" encoding="UTF-8" standalone="no"?>
<!-- Created with Inkscape (http://www.inkscape.org/) -->

<svg
   width="162mm"
   height="137.5mm"
   viewBox="0 0 162 137.5"
   version="1.1"
   id="svg1"
   xml:space="preserve"
   inkscape:version="1.3.2 (091e20e, 2023-11-25, custom)"
   sodipodi:docname="menu.svg"
   xmlns:inkscape="http://www.inkscape.org/namespaces/inkscape"
   xmlns:sodipodi="http://sodipodi.sourceforge.net/DTD/sodipodi-0.dtd"
   xmlns="http://www.w3.org/2000/svg"
   xmlns:svg="http://www.w3.org/2000/svg"><sodipodi:namedview
     id="namedview1"
     pagecolor="#ffffff"
     bordercolor="#000000"
     borderopacity="0.25"
     inkscape:showpageshadow="2"
     inkscape:pageopacity="0.0"
     inkscape:pagecheckerboard="0"
     inkscape:deskcolor="#d1d1d1"
     inkscape:document-units="mm"
     inkscape:zoom="0.31559402"
     inkscape:cx="370.72946"
     inkscape:cy="267.74905"
     inkscape:window-width="1366"
     inkscape:window-height="697"
     inkscape:window-x="-8"
     inkscape:window-y="-8"
     inkscape:window-maximized="1"
     inkscape:current-layer="layer1" /><defs
     id="defs1" /><g
     inkscape:label="Camada 1"
     inkscape:groupmode="layer"
     id="layer1"><path
       style="fill:#ffffff;stroke-width:1.32888;fill-opacity:1"
       d="m 16.616472,137.15893 c -4.188,-0.41191 -7.6292505,-1.99672 -10.6658205,-4.91195 -3.57625,-3.43334 -5.43088011,-7.84837 -5.43088011,-12.92846 0,-4.93027 1.89474011,-9.31186 5.54648011,-12.82623 5.9039205,-5.68185 15.3244205,-6.48901 22.1085305,-1.89429 9.39362,6.36207 10.67381,19.46482 2.68216,27.45204 -3.74279,3.74073 -8.99461,5.62485 -14.24047,5.10889 z m 4.41099,-9.82233 c 2.74938,-0.95614 4.87427,-3.37378 5.486,-6.24179 1.31038,-6.14364 -4.79789,-11.61637 -10.76734,-9.64704 -3.48644,1.15019 -5.7921005,4.33015 -5.7921005,7.98846 0,2.33387 0.7771905,4.20671 2.4327105,5.86223 2.35701,2.35701 5.55485,3.11131 8.64073,2.03814 z m 40.62725,9.81479 c -4.06251,-0.36661 -8.55939,-2.56041 -11.22354,-5.47541 -6.59773,-7.21898 -6.42397,-18.02886 0.39949,-24.85232 2.3346,-2.3346 5.33637,-3.99998 8.71034,-4.83249 1.35885,-0.33529 1.7203,-0.342 21.54356,-0.40005 13.53292,-0.0396 20.759248,-0.001 21.979548,0.11508 4.3732,0.41876 8.34113,2.34926 11.29713,5.49634 2.04002,2.1719 3.52998,4.86173 4.31983,7.7986 0.38482,1.43086 0.42754,1.87409 0.42754,4.43511 0,2.57415 -0.0415,2.99999 -0.43575,4.46747 -0.8489,3.16002 -2.7817,6.40254 -5.08045,8.52315 -3.01432,2.78072 -6.52079,4.34189 -10.62673,4.73125 -2.01438,0.19103 -39.186688,0.18498 -41.310968,-0.007 z m 42.111578,-9.64264 c 5.1645,-1.7236 7.48238,-7.3067 4.99968,-12.04281 -0.67563,-1.28882 -2.24443,-2.83774 -3.51958,-3.47494 -2.12474,-1.06174 -1.25346,-1.02538 -23.348858,-0.97442 l -19.99893,0.0461 -1.05686,0.37627 c -1.85518,0.66048 -3.55076,1.99155 -4.5726,3.58961 -1.61256,2.52185 -1.61238,6.3394 3.7e-4,8.76969 1.4045,2.11647 3.4947,3.53062 5.79628,3.92156 0.4446,0.0755 9.80788,0.12612 20.8073,0.1123 18.930518,-0.0237 20.046698,-0.0409 20.893198,-0.32343 z M 14.975692,86.511712 C 8.6444115,85.317552 3.4200615,80.690282 1.3397214,74.434182 c -1.31291996,-3.94826 -1.03112001,-9.03306 0.70935,-12.80011 1.7020801,-3.68392 4.7489401,-6.83919 8.3075696,-8.60316 5.805321,-2.877619 12.606901,-2.40443 18.047811,1.25558 1.37551,0.92527 3.50878,3.04425 4.48175,4.4517 1.12337,1.625 2.196,3.9464 2.70728,5.85914 0.37919,1.41856 0.42494,1.88734 0.42494,4.35382 0,2.45923 -0.0464,2.93746 -0.4205,4.33627 -1.7263,6.45451 -6.48999,11.27428 -12.78358,12.9341 -1.96799,0.51902 -5.86128,0.66315 -7.83865,0.29019 z m 5.55414,-9.44906 c 2.92375,-0.86747 5.16846,-3.20064 5.9206,-6.1539 1.35003,-5.30092 -3.13475,-10.65445 -8.61451,-10.28324 -3.37727,0.22876 -6.2008,2.31433 -7.419451,5.48025 -0.4892295,1.27097 -0.5999895,3.68214 -0.22829,4.96964 1.086281,3.7626 4.277581,6.23366 8.065351,6.24508 0.81977,0.003 1.75666,-0.10365 2.2763,-0.25783 z m 39.2097,9.35343 c -5.54671,-1.16812 -10.00644,-4.72423 -12.47541,-9.94769 -4.5312,-9.58643 0.47779,-21.12746 10.60434,-24.4331 2.8502,-0.9304 0.59981,-0.88676 45.735218,-0.88676 45.13542,0 42.88503,-0.0436 45.73524,0.88676 5.34234,1.74393 9.61294,6.00054 11.41948,11.38211 0.79331,2.36325 1.06982,5.4437 0.71659,7.98331 -0.98705,7.0966 -6.12334,12.903 -13.12479,14.83712 l -1.57809,0.43593 -42.76194,0.03 c -41.864838,0.0294 -42.793588,0.0234 -44.270638,-0.28771 z m 86.312048,-9.35343 c 1.49181,-0.44261 2.4601,-1.0354 3.65966,-2.24045 1.23131,-1.23693 1.84431,-2.29893 2.2589,-3.91345 1.11272,-4.33334 -1.7074,-8.90889 -6.21007,-10.07565 -0.88377,-0.229 -5.25537,-0.2555 -42.15639,-0.2555 -36.901008,0 -41.272608,0.0264 -42.156388,0.2555 -3.37482,0.87451 -5.83978,3.61132 -6.33324,7.03177 -0.37627,2.60814 0.44761,5.00032 2.391,6.94239 0.62793,0.62751 1.51518,1.33967 1.97167,1.58256 1.83304,0.97537 -1.17074,0.91249 44.138108,0.92416 37.76063,0.009 41.63424,-0.0133 42.43675,-0.25133 z M 15.260172,36.103033 C 12.264212,35.535137 9.6607815,34.368847 7.2257115,32.503725 4.3254515,30.282319 2.0336214,26.769441 1.0593514,23.052116 0.56065139,21.149268 0.37668139,17.766714 0.66842139,15.864557 1.5508214,10.111523 5.1390115,5.2012646 10.356641,2.6066686 c 2.457261,-1.221944 4.417181,-1.71437297 7.235391,-1.81789197 5.20655,-0.191253 9.62302,1.51157197 13.26661,5.11509297 2.29109,2.2658836 3.85814,5.0126614 4.73928,8.3071904 0.37413,1.398817 0.4205,1.877041 0.4205,4.336277 0,2.476937 -0.0449,2.932995 -0.43255,4.390017 -0.5077,1.908376 -1.56348,4.17939 -2.72227,5.855651 -0.96132,1.390565 -3.23353,3.631161 -4.58962,4.525722 -1.48891,0.982187 -3.8662,2.037197 -5.59648,2.483647 -2.04193,0.526861 -5.48726,0.666513 -7.41733,0.300659 z m 4.99334,-9.427331 c 1.54395,-0.402145 2.7093,-1.066239 3.87708,-2.20942 2.66507,-2.608921 3.28782,-6.30913 1.63924,-9.73987 -0.52545,-1.093467 -2.40187,-3.001046 -3.55608,-3.615121 -3.18136,-1.6925924 -7.28429,-1.05703 -9.83066,1.522829 -1.59917,1.620208 -2.4329205,3.646642 -2.4329205,5.913217 0,2.013716 0.5564095,3.601208 1.8220905,5.198547 2.00433,2.529573 5.44917,3.719571 8.48125,2.929818 z m 40.52071,9.496845 c -5.70433,-0.839134 -10.92472,-4.695646 -13.41972,-9.913687 -1.85106,-3.871316 -2.26445,-8.421343 -1.13643,-12.508443 1.54809,-5.6092088 6.11888,-10.3714174 11.697,-12.1869044 2.65597,-0.86440897 0.44628,-0.82725397 46.340018,-0.77937397 l 42.51702,0.04438 1.32272,0.35702997 c 7.70276,2.079097 13.03695,8.5231207 13.49684,16.3049674 0.30636,5.183915 -1.65368,10.215422 -5.3689,13.782185 -2.31,2.2177 -4.93258,3.711917 -7.98733,4.550785 l -1.62592,0.446503 -42.43676,0.02206 c -23.358488,0.01196 -42.869138,-0.04159 -43.398538,-0.119466 z m 85.013828,-9.50018 c 3.04508,-0.793141 5.3917,-3.146625 6.18881,-6.206953 0.4694,-1.802185 0.22568,-3.843237 -0.68529,-5.739002 -0.52545,-1.093467 -2.40187,-3.001046 -3.55608,-3.615121 -1.88584,-1.00333 1.2113,-0.93767 -44.12531,-0.935557 -35.354248,0.0013 -41.513628,0.03575 -42.259358,0.234281 -4.15532,1.105973 -6.86251,5.155478 -6.22865,9.317008 0.49932,3.278303 3.00559,6.070889 6.22562,6.936866 0.75358,0.202667 6.64773,0.237085 42.181088,0.246281 36.55521,0.0093 41.4148,-0.01794 42.25917,-0.237803 z"
       id="path1" /></g></svg>
