<?xml version="1.0" encoding="UTF-8" standalone="no"?>
<!-- Created with Inkscape (http://www.inkscape.org/) -->

<svg
   width="790"
   height="1122"
   viewBox="0 0 209.02083 296.8625"
   version="1.1"
   id="svg1"
   xml:space="preserve"
   inkscape:version="1.3.2 (091e20e, 2023-11-25, custom)"
   sodipodi:docname="potencia.svg"
   xmlns:inkscape="http://www.inkscape.org/namespaces/inkscape"
   xmlns:sodipodi="http://sodipodi.sourceforge.net/DTD/sodipodi-0.dtd"
   xmlns="http://www.w3.org/2000/svg"
   xmlns:svg="http://www.w3.org/2000/svg"><sodipodi:namedview
     id="namedview1"
     pagecolor="#ffffff"
     bordercolor="#000000"
     borderopacity="0.25"
     inkscape:showpageshadow="2"
     inkscape:pageopacity="0.0"
     inkscape:pagecheckerboard="0"
     inkscape:deskcolor="#d1d1d1"
     inkscape:document-units="mm"
     inkscape:zoom="0.31559402"
     inkscape:cx="253.49023"
     inkscape:cy="654.32165"
     inkscape:window-width="1366"
     inkscape:window-height="697"
     inkscape:window-x="-8"
     inkscape:window-y="-8"
     inkscape:window-maximized="1"
     inkscape:current-layer="layer1" /><defs
     id="defs1" /><g
     inkscape:label="Camada 1"
     inkscape:groupmode="layer"
     id="layer1"><path
       style="fill:#ffffff;stroke-width:4.53752;fill-opacity:1"
       d="m 69.281829,271.6572 c 0.02268,-0.49523 1.029834,-5.0705 2.2384,-10.1673 2.262812,-9.54272 2.120516,-11.49874 -0.668286,-9.18423 -1.998637,1.65872 -2.145834,-0.34305 -0.170606,-2.31841 2.003176,-2.00318 4.562106,-1.80118 4.562106,0.36027 0,2.34567 1.087099,2.27565 3.877534,-0.24954 5.797625,-5.24679 8.880821,6.34206 3.274905,12.3093 -1.721806,1.8328 -4.103094,2.94725 -6.297434,2.94725 -3.237789,0 -3.485085,0.29676 -3.000022,3.60165 0.422897,2.88038 0.08939,3.60166 -1.664541,3.60166 -1.206253,0 -2.17474,-0.40519 -2.15219,-0.90043 z m 11.016901,-9.60442 c 4.017649,-4.6235 3.451686,-12.32289 -0.786305,-10.69665 -2.360551,0.90589 -5.884384,8.78395 -4.981465,11.13692 0.877509,2.28687 3.577103,2.08078 5.76777,-0.44014 z m -71.0854714,1.11851 c 0,-0.91981 0.8529174,-4.96375 1.8953184,-8.9866 1.042451,-4.02287 1.657599,-8.5579 1.367062,-10.07783 -0.403838,-2.11176 0.01812,-2.76357 1.787235,-2.76357 1.642672,0 2.134131,0.61053 1.691359,2.10095 -0.34349,1.15554 -1.000839,3.72173 -1.461215,5.70262 l -0.837081,3.60166 2.651134,-2.35063 c 5.042265,-4.47071 9.124226,1.68221 6.046067,9.11352 -0.805011,1.94345 -2.453037,4.06301 -3.662239,4.71016 -3.139551,1.68025 -9.4776404,0.97787 -9.4776404,-1.05028 z m 10.7620754,-4.70304 c 1.400095,-4.05021 1.454453,-5.38864 0.267258,-6.57607 -2.217483,-2.21743 -5.336525,0.22462 -7.131656,5.58325 -1.753748,5.23524 -1.080018,6.95967 2.518684,6.44684 1.828254,-0.26044 3.103978,-1.86155 4.345848,-5.45402 z m 72.135859,5.74792 c -3.005785,-1.90153 -1.972593,-9.77853 1.696577,-12.93457 5.726473,-4.92572 10.73956,-3.03425 10.47689,3.95293 -0.28133,7.48277 -6.8648,12.34009 -12.173467,8.98164 z m 7.67557,-2.73068 c 2.524487,-3.60414 2.453557,-10.38882 -0.11895,-11.37594 -2.782034,-1.0676 -6.416035,3.789 -6.416035,8.57464 0,6.13153 3.232028,7.51696 6.534975,2.8013 z m 10.687427,2.0172 c -0.39068,-1.01839 -0.35529,-4.52997 0.079,-7.80357 0.48388,-3.64757 0.33078,-5.95199 -0.39522,-5.95199 -0.65149,0 0.0672,-1.3506 1.59702,-3.00137 3.33463,-3.59813 4.28841,-3.78966 3.4801,-0.69875 -0.44514,1.70226 0.13203,2.44217 2.2134,2.83789 2.63919,0.50173 2.61582,0.5455 -0.37343,0.69873 -2.89046,0.14838 -3.26716,0.73246 -4.02505,6.24314 -0.95107,6.91526 -0.28224,8.26158 3.06654,6.17038 2.82981,-1.76724 3.03659,-1.10611 0.45992,1.47056 -2.40244,2.40243 -5.18797,2.41841 -6.10259,0.0363 z m 14.67795,-0.0363 c -2.62895,-2.62895 -2.44227,-10.4444 0.309,-12.93422 3.05725,-2.76676 6.92864,-2.47822 9.14169,0.68135 3.14213,4.48601 2.37229,5.73558 -3.5336,5.73558 -5.46402,0 -6.53482,1.15549 -4.31653,4.65787 0.66448,1.04912 2.40779,1.4571 4.75467,1.11264 2.97194,-0.43606 3.44453,-0.2296 2.38716,1.04476 -1.79355,2.16105 -6.4417,2.00264 -8.74231,-0.29811 z m 7.71787,-10.15658 c 0,-3.02235 -3.02636,-4.33546 -5.41781,-2.35075 -2.99735,2.48759 -2.1245,4.78952 1.81614,4.78952 2.81985,0 3.60167,-0.52939 3.60167,-2.43877 z m 7.21753,11.74304 c 0.009,-0.16519 0.76072,-3.1039 1.67309,-6.53067 1.78899,-6.71965 1.37744,-8.41546 -1.47198,-6.06469 -1.46898,1.21191 -1.70052,1.16989 -1.23956,-0.22462 0.31172,-0.94326 1.50896,-2.2939 2.66044,-3.00139 1.64229,-1.009 2.36209,-0.81448 3.3388,0.90233 1.17243,2.06086 1.37639,2.06988 3.49283,0.15473 1.27251,-1.15156 3.10757,-1.7041 4.22968,-1.27354 1.65625,0.63557 1.84682,1.84283 1.15948,7.34416 -0.75476,6.0411 -0.64236,6.516 1.36421,5.76328 1.92377,-0.72166 1.98856,-0.57669 0.53905,1.20527 -3.59181,4.41567 -6.51795,1.61284 -4.77055,-4.56949 1.48295,-5.24658 1.24754,-7.81148 -0.71698,-7.81148 -2.47232,0 -5.40843,4.65015 -6.25373,9.90456 -0.42836,2.6632 -1.39711,4.50206 -2.37162,4.50206 -0.9061,0 -1.64101,-0.13529 -1.63316,-0.29994 z m 21.89578,-0.49496 c -2.76435,-1.11545 -1.80109,-9.81862 1.44615,-13.06581 3.30099,-3.30098 9.05869,-4.02293 9.05869,-1.13578 0,1.51738 -0.40202,1.56602 -2.47931,0.2999 -2.15208,-1.31145 -2.78582,-1.13675 -4.80222,1.32344 -4.71113,5.74815 -1.74462,13.43775 3.83887,9.95081 1.29501,-0.80873 2.24208,-0.90661 2.24208,-0.23188 0,2.50447 -5.78066,4.28074 -9.30426,2.85896 z m 15.59126,-7.59784 c 0.27408,-7.27513 0.61452,-8.39435 2.55702,-8.40382 1.74471,-0.009 2.07692,0.58722 1.50004,2.69027 -0.40744,1.48568 -1.09415,4.81699 -1.52589,7.40286 -0.69929,4.18835 -0.54966,4.61135 1.37099,3.87434 1.82149,-0.69898 1.92055,-0.54366 0.63861,1.00097 -0.83453,1.0056 -2.26875,1.82832 -3.18709,1.82832 -1.29688,0 -1.59917,-1.87427 -1.35368,-8.39294 z m 10.53391,6.01646 c -1.62446,-3.03533 -0.39248,-8.26412 2.76671,-11.7427 1.87648,-2.06627 3.56078,-2.6393 7.05693,-2.40112 2.80083,0.19058 4.39132,0.8384 4.07727,1.66003 -0.28314,0.741 -0.90986,3.98109 -1.39259,7.20031 -0.80283,5.35355 -0.70859,5.71269 1.10397,4.20842 2.26481,-1.87963 2.72412,-0.17248 0.54104,2.0109 -2.00319,2.00312 -4.56209,1.8011 -4.56209,-0.36029 0,-0.99044 -0.30857,-1.80078 -0.68603,-1.80078 -0.37753,0 -1.49639,0.81034 -2.48688,1.80078 -2.47376,2.47376 -4.90292,2.25592 -6.41833,-0.57562 z m 7.59009,-2.20436 c 1.08492,-1.19885 2.31504,-3.89178 2.73354,-5.98424 0.59682,-2.98411 0.30083,-3.98117 -1.37328,-4.62351 -2.98165,-1.14418 -6.56243,3.61313 -6.56243,8.71856 0,4.5936 2.07333,5.34652 5.20217,1.88919 z M 36.825948,255.74862 c 0,-0.70623 4.201919,-1.20054 10.204685,-1.20054 6.002768,0 10.204688,0.49431 10.204688,1.20054 0,0.70622 -4.20192,1.20052 -10.204688,1.20052 -6.002766,0 -10.204685,-0.4943 -10.204685,-1.20052 z m 88.840732,-8.89697 c 0,-1.91902 2.57773,-5.50963 3.95536,-5.50963 1.54089,0 4.98835,4.66252 4.10245,5.54836 -0.28176,0.28179 -1.20707,-0.32488 -2.05611,-1.34771 -1.38959,-1.67436 -1.76643,-1.65865 -3.77273,0.15696 -1.22595,1.10946 -2.22897,1.62786 -2.22897,1.15195 z m 55.22533,-3.70883 c 0,-0.99046 0.54022,-1.8008 1.20052,-1.8008 0.6603,0 1.20059,0.81034 1.20059,1.8008 0,0.99048 -0.54029,1.80083 -1.20059,1.80083 -0.6603,0 -1.20052,-0.81035 -1.20052,-1.80083 z m -76.72224,-49.52137 c 2.80387,-11.82526 2.81875,-12.76298 0.18695,-11.76894 -1.95532,0.73861 -1.9633,0.65438 -0.11527,-1.21416 2.14458,-2.16835 4.61729,-1.44616 4.61729,1.34858 0,1.2654 0.66465,1.06529 2.4749,-0.7449 3.85703,-3.85704 6.46568,-2.5818 6.8977,3.37185 0.30175,4.15978 -0.19965,5.64639 -2.77292,8.21962 -2.21294,2.21296 -4.01266,2.9749 -6.08917,2.57794 -2.31758,-0.44285 -3.09635,0.0273 -3.64298,2.2066 -0.38251,1.52355 -0.34258,3.34107 0.089,4.0389 0.4474,0.72399 -0.21099,1.26876 -1.53382,1.26876 -2.28064,0 -2.28242,-0.14967 -0.11213,-9.30425 z m 9.4025,-0.79329 c 2.19951,-2.65024 3.0051,-9.85172 1.22513,-10.95185 -2.24599,-1.38807 -7.13896,4.85641 -7.13896,9.11083 0,2.65754 0.55938,3.53474 2.2541,3.53474 1.23974,0 2.88663,-0.76217 3.65973,-1.69372 z M 4.4110732,193.85074 c 0,-1.02944 0.4617372,-1.58632 1.0260217,-1.23753 2.0964671,1.29564 6.0103901,-4.56392 5.3408801,-7.99586 -0.713569,-3.65778 -1.5142604,-4.03015 -3.8726319,-1.80087 -1.3102056,1.23849 -1.3447827,1.02871 -0.1978352,-1.20052 1.7224397,-3.34792 4.9190281,-3.5145 5.7596011,-0.29993 0.345306,1.32061 0.975157,2.40113 1.399641,2.40113 0.424256,0 1.446514,-1.08052 2.271252,-2.40113 1.623159,-2.59906 5.633384,-3.36235 4.730632,-0.90039 -0.302653,0.82537 -1.093677,1.38703 -1.757925,1.24819 -0.664202,-0.13886 -2.133221,0.77028 -3.264513,2.02032 -2.728499,3.01496 -1.469518,10.20958 1.584817,9.05694 1.848448,-0.69757 1.848537,-0.60985 0.0012,1.25792 -2.144607,2.16835 -4.61728,1.44617 -4.61728,-1.34859 0,-2.41772 -1.644214,-2.1551 -4.2019196,0.67113 -2.6058926,2.87946 -4.2019185,3.08057 -4.2019185,0.52941 z m 63.8692798,0.43105 c -2.641876,-2.64188 -1.650884,-8.13817 2.153188,-11.94223 4.464277,-4.46432 9.011954,-4.37508 9.011954,0.17696 0,2.55326 -0.761802,3.17022 -5.102342,4.13236 -5.176033,1.1473 -5.967783,2.2443 -3.937428,5.4555 0.924383,1.46199 1.788461,1.53503 4.78381,0.40428 4.075955,-1.53852 4.742426,-0.87726 1.554734,1.54254 -2.640924,2.00472 -6.582344,2.11213 -8.463916,0.2305 z m 7.4653,-8.89244 c 2.186671,-0.83912 2.601128,-5.27403 0.492865,-5.27403 -1.675749,0 -5.797174,3.54634 -5.797174,4.98827 0,1.18588 2.594458,1.32562 5.304309,0.28587 z m 7.901763,8.46142 c 0,-1.02942 0.461735,-1.58633 1.02602,-1.23751 2.096468,1.29565 6.01039,-4.56393 5.34088,-7.99587 -0.71357,-3.65779 -1.514258,-4.03013 -3.872631,-1.80085 -1.310207,1.23845 -1.344781,1.02869 -0.197834,-1.20054 1.722439,-3.3479 4.919027,-3.51448 5.759601,-0.29994 0.345304,1.32061 0.975157,2.40113 1.399643,2.40113 0.424256,0 1.446511,-1.08052 2.271251,-2.40113 1.623157,-2.59903 5.633364,-3.36233 4.730624,-0.90036 -0.302647,0.82537 -1.093674,1.38702 -1.757914,1.24817 -0.66421,-0.13884 -2.133225,0.77028 -3.264518,2.02034 -2.728498,3.01493 -1.469519,10.20958 1.584822,9.05691 1.84844,-0.69755 1.848535,-0.60984 0.0012,1.25793 -2.144616,2.16835 -4.617289,1.44615 -4.617289,-1.34857 0,-2.41775 -1.644213,-2.1551 -4.201919,0.67113 -2.605894,2.87945 -4.201919,3.08056 -4.201919,0.52939 z m 41.058814,0.43107 c -2.52094,-2.52091 -1.71054,-9.20354 1.50614,-12.42022 6.39636,-6.39635 13.00829,-2.04432 10.35393,6.81503 -1.88907,6.3051 -8.18472,9.28053 -11.86007,5.60519 z m 7.43785,-2.4611 c 3.11609,-4.86404 2.92462,-11.70539 -0.3276,-11.70539 -2.89431,0 -4.74288,2.26985 -5.68506,6.98056 -1.41814,7.09077 2.51624,10.18244 6.01266,4.72483 z m 10.38294,1.59898 c -1.80754,-3.37737 -0.17827,-9.42957 3.26803,-12.14048 3.57163,-2.80947 8.48022,-3.09405 9.4571,-0.54832 1.0178,2.6523 -1.63084,5.21424 -6.29535,6.08929 -3.28867,0.61697 -4.08133,1.32264 -4.08133,3.63342 0,2.19212 0.65061,2.8678 2.76127,2.8678 1.5187,0 3.40957,-0.64832 4.20191,-1.44067 1.07217,-1.07217 1.44067,-1.08296 1.44067,-0.0409 0,3.81164 -8.86121,5.11472 -10.7523,1.58119 z m 8.94292,-9.26539 c 1.30531,-1.30531 1.5624,-2.36509 0.76671,-3.16079 -1.61512,-1.61512 -4.5106,-0.35982 -6.12432,2.65562 -1.1249,2.10196 -0.97092,2.46896 1.03627,2.46896 1.29669,0 3.24129,-0.88374 4.32134,-1.96379 z m 7.82638,11.26806 c 0.009,-0.16518 0.76073,-3.10389 1.6731,-6.53072 1.78904,-6.7196 1.37744,-8.41544 -1.47199,-6.06463 -1.46898,1.21185 -1.70047,1.16989 -1.23956,-0.22463 0.31175,-0.9433 1.50901,-2.2939 2.66049,-3.00138 1.64226,-1.009 2.36205,-0.81448 3.33879,0.90233 1.17241,2.06081 1.37642,2.06983 3.49279,0.15472 1.27251,-1.15163 3.10762,-1.70414 4.2297,-1.27352 1.65624,0.63551 1.8468,1.84281 1.15946,7.34413 -0.75476,6.04111 -0.64236,6.51596 1.36423,5.76329 1.92375,-0.72165 1.9886,-0.57668 0.53903,1.20528 -3.5918,4.41565 -6.51795,1.61277 -4.77055,-4.56949 1.48296,-5.24664 1.24754,-7.81152 -0.71698,-7.81152 -2.47229,0 -5.40839,4.65019 -6.25368,9.90458 -0.42835,2.66321 -1.39716,4.50203 -2.37166,4.50203 -0.90606,0 -1.641,-0.13529 -1.63317,-0.29992 z m 20.90714,-1.29779 c -0.33713,-0.87882 -0.0273,-4.20966 0.68759,-7.40189 0.95415,-4.2576 0.94081,-6.02651 -0.0499,-6.63894 -0.91234,-0.56382 -0.73357,-1.07166 0.55069,-1.56447 1.0458,-0.40114 1.9015,-1.55701 1.9015,-2.5682 0,-1.01118 0.54021,-1.83852 1.20052,-1.83852 0.6603,0 1.20054,1.04296 1.20054,2.31763 0,1.44893 1.0125,2.51261 2.70127,2.83785 2.43042,0.46815 2.38619,0.53671 -0.44104,0.68381 -2.78304,0.14481 -3.28038,0.86113 -4.34843,6.26287 -1.25785,6.3615 -0.0532,8.53832 3.53153,6.38231 1.16697,-0.70181 1.14445,-0.42697 -0.0894,1.09417 -1.96552,2.4231 -5.98324,2.67749 -6.84438,0.43334 z m 14.13474,0.15698 c -2.64188,-2.64188 -1.65094,-8.13818 2.15313,-11.94225 4.46433,-4.46433 9.01197,-4.37506 9.01197,0.17695 0,2.55328 -0.76183,3.17024 -5.10237,4.13237 -5.17603,1.14733 -5.96773,2.24431 -3.93742,5.45552 0.92441,1.46197 1.78847,1.53501 4.78387,0.40429 4.07596,-1.53856 4.74238,-0.8773 1.55469,1.54251 -2.64093,2.00472 -6.58236,2.11212 -8.46387,0.23051 z m 7.46525,-8.89244 c 2.18668,-0.83914 2.60111,-5.27404 0.49286,-5.27404 -1.67575,0 -5.79713,3.54633 -5.79713,4.98826 0,1.18587 2.59442,1.32564 5.30427,0.28587 z m -168.579152,0.72872 c 0,-0.70623 4.201918,-1.20058 10.204685,-1.20058 6.002768,0 10.204687,0.49435 10.204687,1.20058 0,0.70616 -4.201919,1.20053 -10.204687,1.20053 -6.002767,0 -10.204685,-0.49437 -10.204685,-1.20053 z m 8.64396,-62.66873 c -1.956938,-1.95694 -1.811828,-6.36474 0.34712,-10.53941 1.964562,-3.79904 4.103,-4.80715 9.767952,-4.60478 l 3.752024,0.1338 -1.56095,6.71483 c -1.741588,7.49215 -1.517525,8.43558 1.426411,6.00526 1.736462,-1.43348 1.944282,-1.42732 1.458269,0.0454 -0.311728,0.94331 -1.511764,2.2939 -2.666653,3.00139 -1.629422,0.99817 -2.452117,0.81267 -3.672299,-0.82796 -1.392247,-1.87194 -1.745037,-1.90635 -3.07807,-0.29993 -1.814685,2.18655 -3.830203,2.31694 -5.773668,0.37344 z m 7.4545,-3.6617 c 3.002472,-4.642 3.631736,-9.17956 1.392155,-10.03896 -2.563015,-0.98351 -6.265398,2.40157 -7.036049,6.43306 -1.209747,6.32833 2.39381,8.63066 5.643894,3.6059 z m 53.533442,4.33918 c 0,-0.13597 1.11954,-4.96161 2.48787,-10.72293 2.02845,-8.54104 2.19471,-10.661 0.90038,-11.48165 -1.1277,-0.71501 -0.80517,-1.01183 1.11383,-1.02489 2.96636,-0.0187 3.23965,1.12153 1.62016,6.7683 l -1.08106,3.76943 3.43009,-1.96859 c 4.27225,-2.45194 6.35375,-0.84648 6.19384,4.77733 -0.1774,6.24403 -3.82499,10.03815 -9.69834,10.08833 -2.73172,0.0226 -4.96677,-0.0689 -4.96677,-0.20554 z m 10.13663,-3.10565 c 2.33655,-3.33583 2.51023,-10.53779 0.2541,-10.53779 -3.53097,0 -8.1452,8.83998 -6.23101,11.93725 1.28521,2.07956 3.98244,1.44801 5.97686,-1.39946 z m 9.63936,1.36334 c -1.30391,-4.10816 0.51283,-10.56623 3.52819,-12.54196 3.55681,-2.33054 10.31377,-1.93967 10.30454,0.59607 -0.005,1.01507 -0.58329,3.92217 -1.28805,6.46022 -1.44841,5.21624 -0.82973,6.65086 1.8935,4.39078 1.55515,-1.29071 1.74009,-1.23597 1.13674,0.33623 -1.08414,2.82529 -4.46963,3.67348 -6.04783,1.5152 -1.22377,-1.67365 -1.5392,-1.68079 -2.8799,-0.0654 -2.16159,2.6046 -5.71855,2.23464 -6.64719,-0.69133 z m 8.29889,-2.85477 c 2.83862,-4.33223 2.5896,-10.24694 -0.43154,-10.24694 -3.7105,0 -7.84286,9.79605 -5.23319,12.4057 1.57969,1.57969 3.75928,0.74906 5.66459,-2.15876 z m 11.14313,4.55989 c -0.44016,-0.44014 -0.78396,-1.65578 -0.76386,-2.70124 0.0318,-1.6099 0.2237,-1.57923 1.26023,0.20012 1.54545,2.65348 5.73954,2.73262 6.73933,0.12712 0.50366,-1.31252 -0.31354,-2.75386 -2.43878,-4.30207 -5.34006,-3.88995 -3.54148,-9.3313 3.08433,-9.3313 1.95626,0 3.70102,0.78643 4.11017,1.85263 1.08886,2.83757 -0.60749,3.65305 -2.4259,1.16618 -0.98655,-1.34915 -2.38305,-1.9136 -3.58925,-1.45074 -2.87921,1.10485 -2.41565,3.86941 1.02693,6.1251 5.14031,3.36806 3.2228,9.11455 -3.04142,9.11455 -1.73877,0 -3.5216,-0.36027 -3.96178,-0.80038 z m 17.44801,-0.64029 c -3.13929,-3.13927 -0.77764,-11.63007 3.93662,-14.15304 4.06237,-2.17411 7.22845,-1.12115 7.22845,2.40405 0,2.53394 -0.77095,3.15586 -5.10232,4.11594 -3.74344,0.82977 -5.10235,1.71908 -5.10235,3.33921 0,2.96534 3.03979,3.95454 6.97975,2.27118 l 3.22492,-1.37779 -2.8342,2.42053 c -3.21057,2.74193 -6.21539,3.0954 -8.33087,0.97992 z m 7.92364,-9.60442 c 1.97007,-1.97009 1.81418,-4.56212 -0.27453,-4.56212 -1.92268,0 -5.48825,3.17559 -5.48825,4.88801 0,1.60364 4.06284,1.37392 5.76264,-0.3258 z m -98.205052,1.44066 c 0,-0.70621 4.201919,-1.20055 10.204687,-1.20055 6.002768,0 10.204685,0.49434 10.204685,1.20055 0,0.70621 -4.201917,1.20054 -10.204685,1.20054 -6.002768,0 -10.204687,-0.49433 -10.204687,-1.20054 z M 57.4754,53.817175 C 55.518506,51.86023 55.663616,47.45249 57.822519,43.277796 59.78708,39.478762 61.925521,38.470663 67.59047,38.672991 l 3.752024,0.133851 -1.560903,6.714794 c -1.741635,7.492213 -1.517527,8.43565 1.426413,6.005308 1.736414,-1.43349 1.944278,-1.42732 1.458219,0.04537 -0.311727,0.943298 -1.511763,2.293894 -2.66665,3.001379 -1.629423,0.99815 -2.452119,0.81267 -3.672301,-0.827957 -1.392201,-1.87195 -1.744992,-1.906344 -3.078022,-0.300384 -1.814733,2.186569 -3.830251,2.316943 -5.773714,0.37343 z m 7.454499,-3.661689 c 3.002518,-4.641966 3.631734,-9.179525 1.392155,-10.03893 -2.562968,-0.983505 -6.265399,2.40157 -7.03605,6.433059 -1.209746,6.328327 2.393811,8.63062 5.643895,3.605871 z m 76.343931,2.919298 c 0,-0.919742 0.85292,-4.96372 1.89532,-8.986542 1.04245,-4.02287 1.6576,-8.557888 1.36702,-10.077864 -0.40384,-2.111714 0.0187,-2.763528 1.78724,-2.763528 1.64267,0 2.13417,0.610479 1.69136,2.10096 -0.3435,1.155524 -1.00085,3.721715 -1.46122,5.702611 l -0.83704,3.601651 2.65113,-2.350659 c 5.04227,-4.470675 9.12417,1.682238 6.04601,9.113552 -0.80501,1.943461 -2.45297,4.063034 -3.66217,4.710162 -3.13956,1.680241 -9.47765,0.97784 -9.47765,-1.050343 z m 10.76205,-4.702995 c 1.40012,-4.05023 1.45448,-5.388659 0.26725,-6.576034 -2.21744,-2.217438 -5.33648,0.224606 -7.13162,5.583226 -1.75375,5.235203 -1.08005,6.959638 2.51867,6.446809 1.82827,-0.260451 3.104,-1.861518 4.34586,-5.454001 z m -46.77856,0.883319 c 0,-0.70622 4.20193,-1.200581 10.20468,-1.200581 6.00277,0 10.20468,0.494361 10.20468,1.200581 0,0.706173 -4.20191,1.200535 -10.20468,1.200535 -6.00275,0 -10.20468,-0.494362 -10.20468,-1.200535 z m 0,-7.203303 c 0,-0.706219 4.20193,-1.200579 10.20468,-1.200579 6.00277,0 10.20468,0.49436 10.20468,1.200579 0,0.706174 -4.20191,1.200535 -10.20468,1.200535 -6.00275,0 -10.20468,-0.494361 -10.20468,-1.200535 z M 76.444112,40.05089 c 0,-1.100485 0.361186,-1.63954 0.803004,-1.197904 0.4415,0.441499 1.733647,-0.04083 2.871112,-1.068675 2.437688,-2.206049 1.723121,-7.022664 -0.892894,-6.018829 -0.943984,0.362094 -1.377904,0.12479 -0.971889,-0.532341 1.141639,-1.847224 3.855752,-1.397329 4.690291,0.777411 0.697871,1.818636 0.914626,1.818636 2.924202,0 2.719059,-2.460738 3.782242,-2.486739 3.782242,-0.09257 0,1.029426 -0.49672,1.564716 -1.103793,1.18951 -0.60703,-0.375253 -1.909568,0.123876 -2.894482,1.108604 -2.199604,2.199605 -1.233159,7.056787 1.217006,6.116569 0.943986,-0.362094 1.377952,-0.12479 0.971937,0.532341 -1.141637,1.847223 -3.855752,1.397327 -4.690291,-0.777413 -0.69787,-1.818636 -0.914671,-1.818636 -2.924202,0 -2.756083,2.494227 -3.782243,2.484244 -3.782243,-0.03631 z"
       id="path1" /></g></svg>
