<?xml version="1.0" encoding="UTF-8" standalone="no"?>
<!-- Created with Inkscape (http://www.inkscape.org/) -->

<svg
   width="700"
   height="600"
   viewBox="0 0 185.208 158.74967"
   version="1.1"
   id="svg1"
   xml:space="preserve"
   inkscape:version="1.3.2 (091e20e, 2023-11-25, custom)"
   sodipodi:docname="radicando.svg"
   xmlns:inkscape="http://www.inkscape.org/namespaces/inkscape"
   xmlns:sodipodi="http://sodipodi.sourceforge.net/DTD/sodipodi-0.dtd"
   xmlns="http://www.w3.org/2000/svg"
   xmlns:svg="http://www.w3.org/2000/svg"><sodipodi:namedview
     id="namedview1"
     pagecolor="#ffffff"
     bordercolor="#000000"
     borderopacity="0.25"
     inkscape:showpageshadow="2"
     inkscape:pageopacity="0.0"
     inkscape:pagecheckerboard="0"
     inkscape:deskcolor="#d1d1d1"
     inkscape:document-units="mm"
     inkscape:zoom="0.44631734"
     inkscape:cx="311.4376"
     inkscape:cy="579.18431"
     inkscape:window-width="1366"
     inkscape:window-height="697"
     inkscape:window-x="-8"
     inkscape:window-y="-8"
     inkscape:window-maximized="1"
     inkscape:current-layer="layer1" /><defs
     id="defs1" /><g
     inkscape:label="Camada 1"
     inkscape:groupmode="layer"
     id="layer1"><path
       style="fill:#ffffff;fill-opacity:1"
       d="m 43.959371,90.804021 c -0.749694,-0.37359 -1.695806,-1.06501 -2.102471,-1.53649 -0.406664,-0.47147 -6.928093,-9.67827 -14.492063,-20.45955 L 13.612163,49.205651 9.9023372,49.104111 c -3.299813,-0.0903 -3.852494,-0.17357 -5.000703,-0.75325 -2.29028,-1.15626 -3.868497,-3.70624 -3.868497,-6.25048 0,-2.38775 1.853279,-5.0842 4.233333,-6.15932 1.07994,-0.48784 1.73352,-0.53837 7.0304708,-0.54364 6.907869,-0.007 7.745449,0.17626 9.628969,2.10541 0.659964,0.67596 5.78384,7.79354 11.386392,15.81685 5.602552,8.02331 10.249664,14.5941 10.326917,14.60176 0.07725,0.008 3.338954,-13.8271 7.248225,-30.7439 3.909271,-16.91679 7.264499,-31.2061905 7.456062,-31.7542125 0.5076,-1.452138 1.605336,-2.766816 2.989885,-3.580769 l 1.215368,-0.714493 H 97.07688 c 32.69275,0 34.57886,0.02526 35.48263,0.475286 5.1202,2.549553 5.15289,9.7597075 0.0556,12.2626395 l -1.53926,0.75582 -30.44583,0.0726 -30.445831,0.0725 -8.269138,35.77849 c -4.548026,19.67817 -8.504801,36.31427 -8.792833,36.96912 -0.698174,1.5873 -1.673277,2.58169 -3.273449,3.33817 -1.858812,0.87875 -4.064872,0.86052 -5.889388,-0.0487 z m 39.036289,-6.71099 c -1.58766,-0.31747 -3.43579,-1.61995 -4.17076,-2.93935 -0.91653,-1.64534 -0.91823,-3.89275 -0.004,-5.61624 0.36381,-0.68603 3.3999,-4.4806 6.74688,-8.43236 3.34698,-3.95177 6.17251,-7.33161 6.27895,-7.51076 0.12273,-0.20655 -1.93666,-2.7817 -5.62899,-7.0387 -6.23939,-7.19357 -7.39684,-8.9186 -7.39684,-11.02402 0,-3.72364 2.45711,-6.2397 6.08542,-6.23144 3.52099,0.008 4.45863,0.78799 10.35567,8.61436 2.61415,3.46942 4.85298,6.24624 4.97517,6.17073 0.12218,-0.0755 2.27275,-2.81903 4.77903,-6.0967 4.97645,-6.5081 6.24765,-7.81601 8.23978,-8.47769 2.45653,-0.81592 5.59635,0.24194 7.01637,2.36395 1.02438,1.5308 1.18646,4.12891 0.36361,5.8287 -0.31719,0.65521 -3.30599,4.38112 -6.6418,8.2798 -3.3358,3.89868 -6.06096,7.14803 -6.0559,7.22079 0.005,0.0728 2.84529,3.38623 6.31163,7.36325 3.46633,3.97703 6.58076,7.78703 6.92093,8.46667 1.71855,3.4335 0.31253,7.46922 -3.06046,8.7845 -1.27864,0.4986 -3.84616,0.3934 -5.21893,-0.21384 -1.67529,-0.74106 -2.69999,-1.87444 -7.91383,-8.75319 -2.49715,-3.29455 -4.67896,-6.1424 -4.84847,-6.32855 -0.24218,-0.26596 -1.33667,1.01457 -5.10931,5.97779 -2.64061,3.47393 -5.30568,6.82081 -5.92237,7.4375 -1.86918,1.86917 -3.91563,2.5919 -6.10151,2.1548 z"
       id="path1" /><text
       xml:space="preserve"
       style="font-size:33.8666px;fill:#ffffff;stroke:#ffffff;stroke-width:0.165;stroke-linecap:square;stroke-linejoin:bevel;fill-opacity:1"
       x="26.720631"
       y="133.48503"
       id="text1"><tspan
         id="tspan1"
         style="font-style:normal;font-variant:normal;font-weight:normal;font-stretch:normal;font-size:33.8666px;font-family:'Times New Roman';-inkscape-font-specification:'Times New Roman, ';fill:#ffffff;stroke-width:0.165;fill-opacity:1"
         x="26.720631"
         y="133.48503"
         sodipodi:role="line">Radicando</tspan></text><circle
       id="path2"
       style="fill:#ffffff;stroke:#ffffff;stroke-width:0.264583;fill-opacity:1"
       cx="100.18563"
       cy="79.363022"
       r="0.0061553288" /><g
       id="g4"
       transform="matrix(1.4244896,0,0,1.4244896,-43.672034,-27.282217)"
       style="fill:#ffffff;fill-opacity:1"><path
         style="fill:#ffffff;stroke:#ffffff;stroke-width:0.165;stroke-linecap:square;stroke-linejoin:bevel;fill-opacity:1"
         d="m 94.813249,88.866578 h 10.429831 v 0.03705 l -5.17787,5.177864 z"
         id="path4" /><rect
         style="fill:#ffffff;stroke:none;stroke-width:0.211896;stroke-linecap:square;stroke-linejoin:bevel;fill-opacity:1"
         id="rect4"
         width="4.1126494"
         height="9.3738766"
         x="97.999619"
         y="82.290047"
         ry="0.99555975" /></g></g></svg>
